<svg height="1422" width="720" xmlns="http://www.w3.org/2000/svg">
<rect height="1422" fill="#555" width="720"></rect>
<text fill="#7f7" font-family="Courier New" font-size="12" xml:space="preserve">
<tspan x="10" y="26">9 megabytes installed</tspan>
<tspan x="10" y="42"></tspan>
<tspan x="10" y="58">node_modules</tspan>
<tspan x="10" y="74">└─┬ gulp-tar@1.9.0 </tspan>
<tspan x="10" y="90">  ├─┬ archiver@1.3.0 </tspan>
<tspan x="10" y="106">  │ ├─┬ archiver-utils@1.3.0 </tspan>
<tspan x="10" y="122">  │ │ ├── graceful-fs@4.1.11 </tspan>
<tspan x="10" y="138">  │ │ ├── lazystream@1.0.0 </tspan>
<tspan x="10" y="154">  │ │ └─┬ normalize-path@2.1.1 </tspan>
<tspan x="10" y="170">  │ │   └── remove-trailing-separator@1.0.1 </tspan>
<tspan x="10" y="186">  │ ├── async@2.3.0 </tspan>
<tspan x="10" y="202">  │ ├── buffer-crc32@0.2.13 </tspan>
<tspan x="10" y="218">  │ ├─┬ glob@7.1.1 </tspan>
<tspan x="10" y="234">  │ │ ├── fs.realpath@1.0.0 </tspan>
<tspan x="10" y="250">  │ │ ├─┬ inflight@1.0.6 </tspan>
<tspan x="10" y="266">  │ │ │ └── wrappy@1.0.2 </tspan>
<tspan x="10" y="282">  │ │ ├── inherits@2.0.3 </tspan>
<tspan x="10" y="298">  │ │ ├─┬ minimatch@3.0.3 </tspan>
<tspan x="10" y="314">  │ │ │ └─┬ brace-expansion@1.1.7 </tspan>
<tspan x="10" y="330">  │ │ │   ├── balanced-match@0.4.2 </tspan>
<tspan x="10" y="346">  │ │ │   └── concat-map@0.0.1 </tspan>
<tspan x="10" y="362">  │ │ ├── once@1.4.0 </tspan>
<tspan x="10" y="378">  │ │ └── path-is-absolute@1.0.1 </tspan>
<tspan x="10" y="394">  │ ├── lodash@4.17.4 </tspan>
<tspan x="10" y="410">  │ ├─┬ readable-stream@2.2.9 </tspan>
<tspan x="10" y="426">  │ │ ├── buffer-shims@1.0.0 </tspan>
<tspan x="10" y="442">  │ │ ├── core-util-is@1.0.2 </tspan>
<tspan x="10" y="458">  │ │ ├── isarray@1.0.0 </tspan>
<tspan x="10" y="474">  │ │ ├── process-nextick-args@1.0.7 </tspan>
<tspan x="10" y="490">  │ │ ├── string_decoder@1.0.0 </tspan>
<tspan x="10" y="506">  │ │ └── util-deprecate@1.0.2 </tspan>
<tspan x="10" y="522">  │ ├─┬ tar-stream@1.5.2 </tspan>
<tspan x="10" y="538">  │ │ ├── bl@1.2.0 </tspan>
<tspan x="10" y="554">  │ │ └── end-of-stream@1.4.0 </tspan>
<tspan x="10" y="570">  │ ├── walkdir@0.0.11 </tspan>
<tspan x="10" y="586">  │ └─┬ zip-stream@1.1.1 </tspan>
<tspan x="10" y="602">  │   └─┬ compress-commons@1.2.0 </tspan>
<tspan x="10" y="618">  │     └─┬ crc32-stream@2.0.0 </tspan>
<tspan x="10" y="634">  │       └── crc@3.4.4 </tspan>
<tspan x="10" y="650">  ├─┬ gulp-util@3.0.8 </tspan>
<tspan x="10" y="666">  │ ├── array-differ@1.0.0 </tspan>
<tspan x="10" y="682">  │ ├── array-uniq@1.0.3 </tspan>
<tspan x="10" y="698">  │ ├── beeper@1.1.1 </tspan>
<tspan x="10" y="714">  │ ├─┬ chalk@1.1.3 </tspan>
<tspan x="10" y="730">  │ │ ├── ansi-styles@2.2.1 </tspan>
<tspan x="10" y="746">  │ │ ├── escape-string-regexp@1.0.5 </tspan>
<tspan x="10" y="762">  │ │ ├─┬ has-ansi@2.0.0 </tspan>
<tspan x="10" y="778">  │ │ │ └── ansi-regex@2.1.1 </tspan>
<tspan x="10" y="794">  │ │ ├── strip-ansi@3.0.1 </tspan>
<tspan x="10" y="810">  │ │ └── supports-color@2.0.0 </tspan>
<tspan x="10" y="826">  │ ├── dateformat@2.0.0 </tspan>
<tspan x="10" y="842">  │ ├─┬ fancy-log@1.3.0 </tspan>
<tspan x="10" y="858">  │ │ └── time-stamp@1.0.1 </tspan>
<tspan x="10" y="874">  │ ├─┬ gulplog@1.0.0 </tspan>
<tspan x="10" y="890">  │ │ └── glogg@1.0.0 </tspan>
<tspan x="10" y="906">  │ ├─┬ has-gulplog@0.1.0 </tspan>
<tspan x="10" y="922">  │ │ └── sparkles@1.0.0 </tspan>
<tspan x="10" y="938">  │ ├── lodash._reescape@3.0.0 </tspan>
<tspan x="10" y="954">  │ ├── lodash._reevaluate@3.0.0 </tspan>
<tspan x="10" y="970">  │ ├── lodash._reinterpolate@3.0.0 </tspan>
<tspan x="10" y="986">  │ ├─┬ lodash.template@3.6.2 </tspan>
<tspan x="10" y="1002">  │ │ ├── lodash._basecopy@3.0.1 </tspan>
<tspan x="10" y="1018">  │ │ ├── lodash._basetostring@3.0.1 </tspan>
<tspan x="10" y="1034">  │ │ ├── lodash._basevalues@3.0.0 </tspan>
<tspan x="10" y="1050">  │ │ ├── lodash._isiterateecall@3.0.9 </tspan>
<tspan x="10" y="1066">  │ │ ├─┬ lodash.escape@3.2.0 </tspan>
<tspan x="10" y="1082">  │ │ │ └── lodash._root@3.0.1 </tspan>
<tspan x="10" y="1098">  │ │ ├─┬ lodash.keys@3.1.2 </tspan>
<tspan x="10" y="1114">  │ │ │ ├── lodash._getnative@3.9.1 </tspan>
<tspan x="10" y="1130">  │ │ │ ├── lodash.isarguments@3.1.0 </tspan>
<tspan x="10" y="1146">  │ │ │ └── lodash.isarray@3.0.4 </tspan>
<tspan x="10" y="1162">  │ │ ├── lodash.restparam@3.6.1 </tspan>
<tspan x="10" y="1178">  │ │ └── lodash.templatesettings@3.1.1 </tspan>
<tspan x="10" y="1194">  │ ├── minimist@1.2.0 </tspan>
<tspan x="10" y="1210">  │ ├─┬ multipipe@0.1.2 </tspan>
<tspan x="10" y="1226">  │ │ └─┬ duplexer2@0.0.2 </tspan>
<tspan x="10" y="1242">  │ │   └─┬ readable-stream@1.1.14 </tspan>
<tspan x="10" y="1258">  │ │     ├── isarray@0.0.1 </tspan>
<tspan x="10" y="1274">  │ │     └── string_decoder@0.10.31 </tspan>
<tspan x="10" y="1290">  │ ├── object-assign@3.0.0 </tspan>
<tspan x="10" y="1306">  │ ├── replace-ext@0.0.1 </tspan>
<tspan x="10" y="1322">  │ └─┬ vinyl@0.5.3 </tspan>
<tspan x="10" y="1338">  │   ├── clone@1.0.2 </tspan>
<tspan x="10" y="1354">  │   └── clone-stats@0.0.1 </tspan>
<tspan x="10" y="1370">  ├── object-assign@4.1.1 </tspan>
<tspan x="10" y="1386">  └─┬ through2@2.0.3 </tspan>
<tspan x="10" y="1402">    └── xtend@4.0.1</tspan>
</text>
</svg>
